<mxfile host="app.diagrams.net" agent="Mozilla/5.0 (Windows NT 10.0; Win64; x64) AppleWebKit/537.36 (KHTML, like Gecko) Chrome/141.0.0.0 Safari/537.36" version="28.2.8">
  <diagram name="PÃ¡gina-1" id="LxHPrjsi4weZTPBW41_R">
    <mxGraphModel grid="1" page="1" gridSize="10" guides="1" tooltips="1" connect="1" arrows="1" fold="1" pageScale="1" pageWidth="827" pageHeight="1169" math="0" shadow="0">
      <root>
        <mxCell id="0" />
        <mxCell id="1" parent="0" />
        <mxCell id="1wvfOKXJ9gTziZtW2AEn-4" style="edgeStyle=orthogonalEdgeStyle;rounded=0;orthogonalLoop=1;jettySize=auto;html=1;entryX=0.2;entryY=1;entryDx=0;entryDy=0;" edge="1" parent="1" source="1wvfOKXJ9gTziZtW2AEn-2" target="1wvfOKXJ9gTziZtW2AEn-3">
          <mxGeometry relative="1" as="geometry">
            <Array as="points">
              <mxPoint x="200" y="295" />
              <mxPoint x="200" y="150" />
            </Array>
          </mxGeometry>
        </mxCell>
        <mxCell id="1wvfOKXJ9gTziZtW2AEn-5" value="ns:isIn" style="edgeLabel;html=1;align=center;verticalAlign=middle;resizable=0;points=[];" vertex="1" connectable="0" parent="1wvfOKXJ9gTziZtW2AEn-4">
          <mxGeometry x="-0.7799" y="-1" relative="1" as="geometry">
            <mxPoint as="offset" />
          </mxGeometry>
        </mxCell>
        <mxCell id="1wvfOKXJ9gTziZtW2AEn-11" style="edgeStyle=orthogonalEdgeStyle;rounded=0;orthogonalLoop=1;jettySize=auto;html=1;" edge="1" parent="1" source="1wvfOKXJ9gTziZtW2AEn-2" target="1wvfOKXJ9gTziZtW2AEn-10">
          <mxGeometry relative="1" as="geometry" />
        </mxCell>
        <mxCell id="1wvfOKXJ9gTziZtW2AEn-12" value="ns:isFinancedby" style="edgeLabel;html=1;align=center;verticalAlign=middle;resizable=0;points=[];" vertex="1" connectable="0" parent="1wvfOKXJ9gTziZtW2AEn-11">
          <mxGeometry x="0.085" y="2" relative="1" as="geometry">
            <mxPoint as="offset" />
          </mxGeometry>
        </mxCell>
        <mxCell id="c-lRowIocn__MEwOGbcA-4" style="edgeStyle=orthogonalEdgeStyle;rounded=0;orthogonalLoop=1;jettySize=auto;html=1;" edge="1" parent="1" source="1wvfOKXJ9gTziZtW2AEn-2" target="c-lRowIocn__MEwOGbcA-5">
          <mxGeometry relative="1" as="geometry">
            <mxPoint x="260" y="340" as="targetPoint" />
          </mxGeometry>
        </mxCell>
        <mxCell id="c-lRowIocn__MEwOGbcA-6" value="ns:isNamed" style="edgeLabel;html=1;align=center;verticalAlign=middle;resizable=0;points=[];" connectable="0" vertex="1" parent="c-lRowIocn__MEwOGbcA-4">
          <mxGeometry x="0.4458" y="-1" relative="1" as="geometry">
            <mxPoint as="offset" />
          </mxGeometry>
        </mxCell>
        <mxCell id="c-lRowIocn__MEwOGbcA-7" style="edgeStyle=orthogonalEdgeStyle;rounded=0;orthogonalLoop=1;jettySize=auto;html=1;entryX=0.5;entryY=0;entryDx=0;entryDy=0;" edge="1" parent="1" source="1wvfOKXJ9gTziZtW2AEn-2" target="c-lRowIocn__MEwOGbcA-1">
          <mxGeometry relative="1" as="geometry" />
        </mxCell>
        <mxCell id="c-lRowIocn__MEwOGbcA-8" value="ns:isType" style="edgeLabel;html=1;align=center;verticalAlign=middle;resizable=0;points=[];" connectable="0" vertex="1" parent="c-lRowIocn__MEwOGbcA-7">
          <mxGeometry x="0.1577" y="-1" relative="1" as="geometry">
            <mxPoint as="offset" />
          </mxGeometry>
        </mxCell>
        <mxCell id="c-lRowIocn__MEwOGbcA-10" style="edgeStyle=orthogonalEdgeStyle;rounded=0;orthogonalLoop=1;jettySize=auto;html=1;entryX=0.2;entryY=1;entryDx=0;entryDy=0;" edge="1" parent="1" source="1wvfOKXJ9gTziZtW2AEn-2" target="c-lRowIocn__MEwOGbcA-9">
          <mxGeometry relative="1" as="geometry">
            <Array as="points">
              <mxPoint x="150" y="305" />
              <mxPoint x="150" y="110" />
            </Array>
          </mxGeometry>
        </mxCell>
        <mxCell id="c-lRowIocn__MEwOGbcA-11" value="ns:hasBeds" style="edgeLabel;html=1;align=center;verticalAlign=middle;resizable=0;points=[];" connectable="0" vertex="1" parent="c-lRowIocn__MEwOGbcA-10">
          <mxGeometry x="-0.2609" y="-1" relative="1" as="geometry">
            <mxPoint as="offset" />
          </mxGeometry>
        </mxCell>
        <mxCell id="c-lRowIocn__MEwOGbcA-13" style="edgeStyle=orthogonalEdgeStyle;rounded=0;orthogonalLoop=1;jettySize=auto;html=1;entryX=0;entryY=0.5;entryDx=0;entryDy=0;" edge="1" parent="1" source="1wvfOKXJ9gTziZtW2AEn-2" target="c-lRowIocn__MEwOGbcA-12">
          <mxGeometry relative="1" as="geometry" />
        </mxCell>
        <mxCell id="c-lRowIocn__MEwOGbcA-14" value="ns:isLocatedin" style="edgeLabel;html=1;align=center;verticalAlign=middle;resizable=0;points=[];" connectable="0" vertex="1" parent="c-lRowIocn__MEwOGbcA-13">
          <mxGeometry x="0.489" relative="1" as="geometry">
            <mxPoint x="18" as="offset" />
          </mxGeometry>
        </mxCell>
        <mxCell id="c-lRowIocn__MEwOGbcA-16" style="edgeStyle=orthogonalEdgeStyle;rounded=0;orthogonalLoop=1;jettySize=auto;html=1;entryX=0.3;entryY=0;entryDx=0;entryDy=0;" edge="1" parent="1" source="1wvfOKXJ9gTziZtW2AEn-2" target="c-lRowIocn__MEwOGbcA-15">
          <mxGeometry relative="1" as="geometry">
            <Array as="points">
              <mxPoint x="352" y="340" />
              <mxPoint x="86" y="340" />
            </Array>
          </mxGeometry>
        </mxCell>
        <mxCell id="c-lRowIocn__MEwOGbcA-17" value="ns:wasCreatedin" style="edgeLabel;html=1;align=center;verticalAlign=middle;resizable=0;points=[];" connectable="0" vertex="1" parent="c-lRowIocn__MEwOGbcA-16">
          <mxGeometry x="0.4396" relative="1" as="geometry">
            <mxPoint as="offset" />
          </mxGeometry>
        </mxCell>
        <mxCell id="c-lRowIocn__MEwOGbcA-21" style="edgeStyle=orthogonalEdgeStyle;rounded=0;orthogonalLoop=1;jettySize=auto;html=1;entryX=0;entryY=0.5;entryDx=0;entryDy=0;exitX=0.956;exitY=-0.067;exitDx=0;exitDy=0;exitPerimeter=0;" edge="1" parent="1" source="1wvfOKXJ9gTziZtW2AEn-2" target="c-lRowIocn__MEwOGbcA-19">
          <mxGeometry relative="1" as="geometry">
            <Array as="points">
              <mxPoint x="410" y="288" />
              <mxPoint x="410" y="95" />
            </Array>
          </mxGeometry>
        </mxCell>
        <mxCell id="c-lRowIocn__MEwOGbcA-22" value="ns:estaEnbarrio" style="edgeLabel;html=1;align=center;verticalAlign=middle;resizable=0;points=[];" connectable="0" vertex="1" parent="c-lRowIocn__MEwOGbcA-21">
          <mxGeometry x="0.0942" y="1" relative="1" as="geometry">
            <mxPoint as="offset" />
          </mxGeometry>
        </mxCell>
        <mxCell id="c-lRowIocn__MEwOGbcA-23" style="edgeStyle=orthogonalEdgeStyle;rounded=0;orthogonalLoop=1;jettySize=auto;html=1;entryX=0;entryY=0.5;entryDx=0;entryDy=0;" edge="1" parent="1" source="1wvfOKXJ9gTziZtW2AEn-2" target="c-lRowIocn__MEwOGbcA-20">
          <mxGeometry relative="1" as="geometry" />
        </mxCell>
        <mxCell id="c-lRowIocn__MEwOGbcA-24" value="ns:tieneCodigodeBarrio" style="edgeLabel;html=1;align=center;verticalAlign=middle;resizable=0;points=[];" connectable="0" vertex="1" parent="c-lRowIocn__MEwOGbcA-23">
          <mxGeometry x="0.416" y="-1" relative="1" as="geometry">
            <mxPoint as="offset" />
          </mxGeometry>
        </mxCell>
        <mxCell id="c-lRowIocn__MEwOGbcA-27" style="edgeStyle=orthogonalEdgeStyle;rounded=0;orthogonalLoop=1;jettySize=auto;html=1;" edge="1" parent="1" source="1wvfOKXJ9gTziZtW2AEn-2" target="c-lRowIocn__MEwOGbcA-26">
          <mxGeometry relative="1" as="geometry" />
        </mxCell>
        <mxCell id="c-lRowIocn__MEwOGbcA-28" value="ns:tieneCoddistBarrio" style="edgeLabel;html=1;align=center;verticalAlign=middle;resizable=0;points=[];" connectable="0" vertex="1" parent="c-lRowIocn__MEwOGbcA-27">
          <mxGeometry x="0.6" y="2" relative="1" as="geometry">
            <mxPoint as="offset" />
          </mxGeometry>
        </mxCell>
        <mxCell id="c-lRowIocn__MEwOGbcA-30" style="edgeStyle=orthogonalEdgeStyle;rounded=0;orthogonalLoop=1;jettySize=auto;html=1;" edge="1" parent="1" source="1wvfOKXJ9gTziZtW2AEn-2" target="c-lRowIocn__MEwOGbcA-29">
          <mxGeometry relative="1" as="geometry" />
        </mxCell>
        <mxCell id="c-lRowIocn__MEwOGbcA-31" value="ns:tieneCodigodistrito" style="edgeLabel;html=1;align=center;verticalAlign=middle;resizable=0;points=[];" connectable="0" vertex="1" parent="c-lRowIocn__MEwOGbcA-30">
          <mxGeometry x="0.6645" relative="1" as="geometry">
            <mxPoint as="offset" />
          </mxGeometry>
        </mxCell>
        <mxCell id="c-lRowIocn__MEwOGbcA-33" style="edgeStyle=orthogonalEdgeStyle;rounded=0;orthogonalLoop=1;jettySize=auto;html=1;entryX=0.3;entryY=1;entryDx=0;entryDy=0;" edge="1" parent="1" source="1wvfOKXJ9gTziZtW2AEn-2" target="1wvfOKXJ9gTziZtW2AEn-6">
          <mxGeometry relative="1" as="geometry">
            <Array as="points">
              <mxPoint x="36" y="320" />
            </Array>
          </mxGeometry>
        </mxCell>
        <mxCell id="c-lRowIocn__MEwOGbcA-34" value="ns:hasShape" style="edgeLabel;html=1;align=center;verticalAlign=middle;resizable=0;points=[];" connectable="0" vertex="1" parent="c-lRowIocn__MEwOGbcA-33">
          <mxGeometry x="0.6568" y="3" relative="1" as="geometry">
            <mxPoint as="offset" />
          </mxGeometry>
        </mxCell>
        <mxCell id="1wvfOKXJ9gTziZtW2AEn-2" value="ns:Hospital" style="rounded=0;whiteSpace=wrap;html=1;snapToPoint=1;points=[[0.1,0],[0.2,0],[0.3,0],[0.4,0],[0.5,0],[0.6,0],[0.7,0],[0.8,0],[0.9,0],[0,0.1],[0,0.3],[0,0.5],[0,0.7],[0,0.9],[0.1,1],[0.2,1],[0.3,1],[0.4,1],[0.5,1],[0.6,1],[0.7,1],[0.8,1],[0.9,1],[1,0.1],[1,0.3],[1,0.5],[1,0.7],[1,0.9]];" vertex="1" parent="1">
          <mxGeometry x="284" y="289.9999999999999" width="136" height="30" as="geometry" />
        </mxCell>
        <mxCell id="1wvfOKXJ9gTziZtW2AEn-3" value="&lt;u&gt;ns:geo_point_2D&lt;/u&gt;" style="rounded=0;whiteSpace=wrap;html=1;snapToPoint=1;points=[[0.1,0],[0.2,0],[0.3,0],[0.4,0],[0.5,0],[0.6,0],[0.7,0],[0.8,0],[0.9,0],[0,0.1],[0,0.3],[0,0.5],[0,0.7],[0,0.9],[0.1,1],[0.2,1],[0.3,1],[0.4,1],[0.5,1],[0.6,1],[0.7,1],[0.8,1],[0.9,1],[1,0.1],[1,0.3],[1,0.5],[1,0.7],[1,0.9]];" vertex="1" parent="1">
          <mxGeometry x="220" y="80" width="100" height="30" as="geometry" />
        </mxCell>
        <mxCell id="1wvfOKXJ9gTziZtW2AEn-6" value="ns:Geo Shape" style="rounded=0;whiteSpace=wrap;html=1;snapToPoint=1;points=[[0.1,0],[0.2,0],[0.3,0],[0.4,0],[0.5,0],[0.6,0],[0.7,0],[0.8,0],[0.9,0],[0,0.1],[0,0.3],[0,0.5],[0,0.7],[0,0.9],[0.1,1],[0.2,1],[0.3,1],[0.4,1],[0.5,1],[0.6,1],[0.7,1],[0.8,1],[0.9,1],[1,0.1],[1,0.3],[1,0.5],[1,0.7],[1,0.9]];" vertex="1" parent="1">
          <mxGeometry y="200.00000000000023" width="120" height="30" as="geometry" />
        </mxCell>
        <mxCell id="1wvfOKXJ9gTziZtW2AEn-10" value="ns:Financiaci" style="rounded=0;whiteSpace=wrap;html=1;snapToPoint=1;points=[[0.1,0],[0.2,0],[0.3,0],[0.4,0],[0.5,0],[0.6,0],[0.7,0],[0.8,0],[0.9,0],[0,0.1],[0,0.3],[0,0.5],[0,0.7],[0,0.9],[0.1,1],[0.2,1],[0.3,1],[0.4,1],[0.5,1],[0.6,1],[0.7,1],[0.8,1],[0.9,1],[1,0.1],[1,0.3],[1,0.5],[1,0.7],[1,0.9]];" vertex="1" parent="1">
          <mxGeometry x="414" y="550.0000000000002" width="120" height="30" as="geometry" />
        </mxCell>
        <mxCell id="c-lRowIocn__MEwOGbcA-1" value="ns:Tipo" style="rounded=0;whiteSpace=wrap;html=1;snapToPoint=1;points=[[0.1,0],[0.2,0],[0.3,0],[0.4,0],[0.5,0],[0.6,0],[0.7,0],[0.8,0],[0.9,0],[0,0.1],[0,0.3],[0,0.5],[0,0.7],[0,0.9],[0.1,1],[0.2,1],[0.3,1],[0.4,1],[0.5,1],[0.6,1],[0.7,1],[0.8,1],[0.9,1],[1,0.1],[1,0.3],[1,0.5],[1,0.7],[1,0.9]];" vertex="1" parent="1">
          <mxGeometry x="650" y="600.0000000000002" width="120" height="30" as="geometry" />
        </mxCell>
        <mxCell id="c-lRowIocn__MEwOGbcA-5" value="ns:Nombre" style="rounded=0;whiteSpace=wrap;html=1;snapToPoint=1;points=[[0.1,0],[0.2,0],[0.3,0],[0.4,0],[0.5,0],[0.6,0],[0.7,0],[0.8,0],[0.9,0],[0,0.1],[0,0.3],[0,0.5],[0,0.7],[0,0.9],[0.1,1],[0.2,1],[0.3,1],[0.4,1],[0.5,1],[0.6,1],[0.7,1],[0.8,1],[0.9,1],[1,0.1],[1,0.3],[1,0.5],[1,0.7],[1,0.9]];" vertex="1" parent="1">
          <mxGeometry x="210" y="450" width="120" height="30" as="geometry" />
        </mxCell>
        <mxCell id="c-lRowIocn__MEwOGbcA-9" value="ns:Camas" style="rounded=0;whiteSpace=wrap;html=1;snapToPoint=1;points=[[0.1,0],[0.2,0],[0.3,0],[0.4,0],[0.5,0],[0.6,0],[0.7,0],[0.8,0],[0.9,0],[0,0.1],[0,0.3],[0,0.5],[0,0.7],[0,0.9],[0.1,1],[0.2,1],[0.3,1],[0.4,1],[0.5,1],[0.6,1],[0.7,1],[0.8,1],[0.9,1],[1,0.1],[1,0.3],[1,0.5],[1,0.7],[1,0.9]];" vertex="1" parent="1">
          <mxGeometry x="70" y="80.00000000000023" width="120" height="30" as="geometry" />
        </mxCell>
        <mxCell id="c-lRowIocn__MEwOGbcA-12" value="ns:Direccion" style="rounded=0;whiteSpace=wrap;html=1;snapToPoint=1;points=[[0.1,0],[0.2,0],[0.3,0],[0.4,0],[0.5,0],[0.6,0],[0.7,0],[0.8,0],[0.9,0],[0,0.1],[0,0.3],[0,0.5],[0,0.7],[0,0.9],[0.1,1],[0.2,1],[0.3,1],[0.4,1],[0.5,1],[0.6,1],[0.7,1],[0.8,1],[0.9,1],[1,0.1],[1,0.3],[1,0.5],[1,0.7],[1,0.9]];" vertex="1" parent="1">
          <mxGeometry x="390" y="40.00000000000023" width="120" height="30" as="geometry" />
        </mxCell>
        <mxCell id="c-lRowIocn__MEwOGbcA-15" value="ns:Fecha" style="rounded=0;whiteSpace=wrap;html=1;snapToPoint=1;points=[[0.1,0],[0.2,0],[0.3,0],[0.4,0],[0.5,0],[0.6,0],[0.7,0],[0.8,0],[0.9,0],[0,0.1],[0,0.3],[0,0.5],[0,0.7],[0,0.9],[0.1,1],[0.2,1],[0.3,1],[0.4,1],[0.5,1],[0.6,1],[0.7,1],[0.8,1],[0.9,1],[1,0.1],[1,0.3],[1,0.5],[1,0.7],[1,0.9]];" vertex="1" parent="1">
          <mxGeometry x="50" y="530.0000000000002" width="120" height="30" as="geometry" />
        </mxCell>
        <mxCell id="c-lRowIocn__MEwOGbcA-19" value="ns:Barrio" style="rounded=0;whiteSpace=wrap;html=1;snapToPoint=1;points=[[0.1,0],[0.2,0],[0.3,0],[0.4,0],[0.5,0],[0.6,0],[0.7,0],[0.8,0],[0.9,0],[0,0.1],[0,0.3],[0,0.5],[0,0.7],[0,0.9],[0.1,1],[0.2,1],[0.3,1],[0.4,1],[0.5,1],[0.6,1],[0.7,1],[0.8,1],[0.9,1],[1,0.1],[1,0.3],[1,0.5],[1,0.7],[1,0.9]];" vertex="1" parent="1">
          <mxGeometry x="480" y="80.00000000000023" width="120" height="30" as="geometry" />
        </mxCell>
        <mxCell id="c-lRowIocn__MEwOGbcA-20" value="ns:codbarrio" style="rounded=0;whiteSpace=wrap;html=1;snapToPoint=1;points=[[0.1,0],[0.2,0],[0.3,0],[0.4,0],[0.5,0],[0.6,0],[0.7,0],[0.8,0],[0.9,0],[0,0.1],[0,0.3],[0,0.5],[0,0.7],[0,0.9],[0.1,1],[0.2,1],[0.3,1],[0.4,1],[0.5,1],[0.6,1],[0.7,1],[0.8,1],[0.9,1],[1,0.1],[1,0.3],[1,0.5],[1,0.7],[1,0.9]];" vertex="1" parent="1">
          <mxGeometry x="510" y="130.00000000000023" width="120" height="30" as="geometry" />
        </mxCell>
        <mxCell id="c-lRowIocn__MEwOGbcA-26" value="ns:coddistbar" style="rounded=0;whiteSpace=wrap;html=1;snapToPoint=1;points=[[0.1,0],[0.2,0],[0.3,0],[0.4,0],[0.5,0],[0.6,0],[0.7,0],[0.8,0],[0.9,0],[0,0.1],[0,0.3],[0,0.5],[0,0.7],[0,0.9],[0.1,1],[0.2,1],[0.3,1],[0.4,1],[0.5,1],[0.6,1],[0.7,1],[0.8,1],[0.9,1],[1,0.1],[1,0.3],[1,0.5],[1,0.7],[1,0.9]];" vertex="1" parent="1">
          <mxGeometry x="550" y="200.00000000000023" width="120" height="30" as="geometry" />
        </mxCell>
        <mxCell id="c-lRowIocn__MEwOGbcA-29" value="ns:coddistrit" style="rounded=0;whiteSpace=wrap;html=1;snapToPoint=1;points=[[0.1,0],[0.2,0],[0.3,0],[0.4,0],[0.5,0],[0.6,0],[0.7,0],[0.8,0],[0.9,0],[0,0.1],[0,0.3],[0,0.5],[0,0.7],[0,0.9],[0.1,1],[0.2,1],[0.3,1],[0.4,1],[0.5,1],[0.6,1],[0.7,1],[0.8,1],[0.9,1],[1,0.1],[1,0.3],[1,0.5],[1,0.7],[1,0.9]];" vertex="1" parent="1">
          <mxGeometry x="520" y="410.0000000000002" width="120" height="30" as="geometry" />
        </mxCell>
      </root>
    </mxGraphModel>
  </diagram>
</mxfile>
